<?xml version="1.0" encoding="UTF-8" standalone="no"?>
<!DOCTYPE svg PUBLIC "-//W3C//DTD SVG 1.1//EN"
 "http://www.w3.org/Graphics/SVG/1.1/DTD/svg11.dtd">
<!-- Generated by graphviz version 2.38.0 (20140413.2041)
 -->
<!-- Title: trading_platform Pages: 1 -->
<svg width="746pt" height="116pt"
 viewBox="0.00 0.00 745.71 116.00" xmlns="http://www.w3.org/2000/svg" xmlns:xlink="http://www.w3.org/1999/xlink">
<g id="graph0" class="graph" transform="scale(1 1) rotate(0) translate(4 112)">
<title>trading_platform</title>
<polygon fill="white" stroke="none" points="-4,4 -4,-112 741.709,-112 741.709,4 -4,4"/>
<!-- Market data provider -->
<g id="node1" class="node"><title>Market data provider</title>
<ellipse fill="none" stroke="black" cx="84.7538" cy="-18" rx="84.5083" ry="18"/>
<text text-anchor="middle" x="84.7538" y="-13.8" font-family="Times,serif" font-size="14.00">Market data provider</text>
</g>
<!-- Trading platform -->
<g id="node2" class="node"><title>Trading platform</title>
<ellipse fill="none" stroke="black" cx="377.464" cy="-18" rx="70.4132" ry="18"/>
<text text-anchor="middle" x="377.464" y="-13.8" font-family="Times,serif" font-size="14.00">Trading platform</text>
</g>
<!-- Market data provider&#45;&gt;Trading platform -->
<g id="edge1" class="edge"><title>Market data provider&#45;&gt;Trading platform</title>
<path fill="none" stroke="black" d="M169.839,-18C209.793,-18 257.307,-18 296.692,-18"/>
<polygon fill="black" stroke="black" points="296.783,-21.5001 306.783,-18 296.783,-14.5001 296.783,-21.5001"/>
<text text-anchor="middle" x="238.258" y="-20.8" font-family="Times,serif" font-size="14.00"> &#160;Anonymous data</text>
</g>
<!-- Stock exchange -->
<g id="node3" class="node"><title>Stock exchange</title>
<ellipse fill="none" stroke="black" cx="671.86" cy="-18" rx="65.6987" ry="18"/>
<text text-anchor="middle" x="671.86" y="-13.8" font-family="Times,serif" font-size="14.00">Stock exchange</text>
</g>
<!-- Trading platform&#45;&gt;Stock exchange -->
<g id="edge2" class="edge"><title>Trading platform&#45;&gt;Stock exchange</title>
<path fill="none" stroke="black" d="M448.129,-18C492.571,-18 550.153,-18 595.635,-18"/>
<polygon fill="black" stroke="black" points="595.736,-21.5001 605.736,-18 595.736,-14.5001 595.736,-21.5001"/>
<text text-anchor="middle" x="526.966" y="-20.8" font-family="Times,serif" font-size="14.00"> &#160;Orders to buy or sell</text>
</g>
<!-- User interface -->
<g id="node4" class="node"><title>User interface</title>
<ellipse fill="none" stroke="black" cx="377.464" cy="-90" rx="59.884" ry="18"/>
<text text-anchor="middle" x="377.464" y="-85.8" font-family="Times,serif" font-size="14.00">User interface</text>
</g>
<!-- Trading platform&#45;&gt;User interface -->
<g id="edge3" class="edge"><title>Trading platform&#45;&gt;User interface</title>
<path fill="none" stroke="black" d="M392.31,-35.8248C393.166,-37.4371 393.904,-39.0998 394.464,-40.7861 397.297,-49.321 397.961,-53.7438 395.425,-62.6981"/>
<polygon fill="black" stroke="black" points="392.018,-61.8496 392.166,-72.4434 398.657,-64.0695 392.018,-61.8496"/>
<text text-anchor="middle" x="387.464" y="-49.8" font-family="Times,serif" font-size="14.00">Data</text>
</g>
<!-- User interface&#45;&gt;Trading platform -->
<g id="edge4" class="edge"><title>User interface&#45;&gt;Trading platform</title>
<path fill="none" stroke="black" d="M377.464,-71.5867C377.464,-63.9407 377.464,-54.8916 377.464,-46.4274"/>
<polygon fill="black" stroke="black" points="380.964,-46.1686 377.464,-36.1686 373.964,-46.1687 380.964,-46.1686"/>
<text text-anchor="middle" x="367.464" y="-49.8" font-family="Times,serif" font-size="14.00">Commands</text>
</g>
</g>
</svg>
